<?xml version="1.0" encoding="UTF-8"?>
<svg version="1.1" xmlns="http://www.w3.org/2000/svg" width="512" height="512">
<path d="M0 0 C8.79929739 5.48210195 14.81694367 12.44487294 17.58984375 22.47265625 C18.86874704 29.8692 16.72100841 36.9723683 13.21875 43.4765625 C5.57218137 52.82236861 5.57218137 52.82236861 -0.6730957 54.82739258 C-1.48792923 55.09127274 -2.30276276 55.35515289 -3.14228821 55.62702942 C-3.7656456 55.82487534 -4.38900299 56.02272125 -5.03125 56.2265625 C-5.02236755 56.99220016 -5.01348511 57.75783783 -5.0043335 58.54667664 C-4.92410403 65.77071019 -4.86324366 72.99452699 -4.82400131 80.21889019 C-4.80314788 83.93282299 -4.77487245 87.64638691 -4.72949219 91.36010742 C-4.68595254 94.94573898 -4.662096 98.5310163 -4.65174103 102.11689186 C-4.64436406 103.48323962 -4.62995819 104.84956852 -4.60832977 106.215765 C-4.57919428 108.13282655 -4.57761524 110.05024641 -4.57714844 111.9675293 C-4.56826599 113.05784958 -4.55938354 114.14816986 -4.55023193 115.27153015 C-5.29524508 119.84836021 -7.78299867 122.24820335 -11.34375 125.0390625 C-13.68527085 126.94495157 -15.40740259 128.75065193 -17.34375 131.0390625 C-20.89269161 135.20555122 -24.82859218 138.73344432 -29.03125 142.2265625 C-27.82492548 145.65994766 -26.64647816 147.73020835 -24.03125 150.2265625 C-24.03125 150.8865625 -24.03125 151.5465625 -24.03125 152.2265625 C-23.37125 152.2265625 -22.71125 152.2265625 -22.03125 152.2265625 C-3.86653754 173.15466936 5.7304391 199.47088219 10.96875 226.2265625 C11.16855469 227.20109375 11.36835938 228.175625 11.57421875 229.1796875 C12.09016206 233.16420022 11.96875 237.20878462 11.96875 241.2265625 C25.82875 241.2265625 39.68875 241.2265625 53.96875 241.2265625 C55.45375 236.7715625 55.45375 236.7715625 56.96875 232.2265625 C61.76977089 225.44551969 68.84868416 220.89380035 76.96875 219.2265625 C85.6827784 218.29400858 92.7562417 220.00210039 99.75 225.35546875 C108.5937141 233.06830561 108.5937141 233.06830561 109.29101562 238.94042969 C109.38215866 242.28622683 109.4392616 245.62962863 109.46875 248.9765625 C109.530625 250.7090625 109.530625 250.7090625 109.59375 252.4765625 C109.65560658 259.24985833 109.1205381 263.55313606 104.54150391 268.69726562 C102.72600216 270.46260294 100.97362811 272.13274766 98.90625 273.6015625 C98.27589844 274.06304687 97.64554687 274.52453125 96.99609375 275 C89.57476741 279.48997393 79.81788802 279.58407273 71.4609375 277.64453125 C64.55940175 274.58494354 58.77211548 268.17752419 54.90625 261.8515625 C53.96875 259.2265625 53.96875 259.2265625 53.96875 256.2265625 C40.43875 256.2265625 26.90875 256.2265625 12.96875 256.2265625 C12.96875 259.5265625 12.96875 262.8265625 12.96875 266.2265625 C12.79235296 268.09735861 12.56983656 269.96537026 12.26953125 271.8203125 C12.11508545 272.77873047 11.96063965 273.73714844 11.80151367 274.72460938 C11.54398315 276.21057617 11.54398315 276.21057617 11.28125 277.7265625 C11.01115112 279.29760742 11.01115112 279.29760742 10.7355957 280.90039062 C8.34935069 294.26580906 5.04923582 306.81638339 -0.79614258 319.10351562 C-2.39370738 322.49108018 -3.03125 324.38990127 -3.03125 328.2265625 C-1.10924128 330.67475334 -1.10924128 330.67475334 1.46875 333.0390625 C2.3040625 333.84988281 3.139375 334.66070312 4 335.49609375 C4.98619907 336.40991592 5.97608129 337.31977234 6.96875 338.2265625 C7.54439697 338.75846191 8.12004395 339.29036133 8.71313477 339.83837891 C12.40640626 343.16971261 16.13228011 346.00623838 20.30859375 348.7109375 C27.80412378 354.1282123 34.54243738 359.69882849 36.58825684 369.06182861 C38.80466737 384.91666724 37.88620063 401.2931556 36.96875 417.2265625 C38.38692017 417.67793579 38.38692017 417.67793579 39.83374023 418.13842773 C47.17621655 420.68693774 51.55079287 426.41873244 55.05859375 433.11328125 C58.21147076 440.43390984 57.82360099 448.48690666 55.40625 455.9765625 C51.91140614 464.55481561 45.37360267 469.63296825 36.96875 473.2265625 C27.68018578 475.48439811 20.1458709 474.02220778 11.84375 469.5390625 C4.2755764 463.45161852 -0.19967696 457.3157227 -1.34375 447.5625 C-1.81253665 437.1612961 1.82283756 429.92631994 8.578125 422.234375 C10.96875 420.2265625 10.96875 420.2265625 18.96875 416.2265625 C19.29875 401.3765625 19.62875 386.5265625 19.96875 371.2265625 C18.97875 370.8965625 17.98875 370.5665625 16.96875 370.2265625 C15.6015625 368.80078125 15.6015625 368.80078125 14.09375 366.9140625 C10.83726097 363.06423012 7.31749865 359.67355655 3.59375 356.2890625 C-1.76943542 351.41393081 -6.9640759 346.41157785 -12.03125 341.2265625 C-12.68609375 342.07476562 -13.3409375 342.92296875 -14.015625 343.796875 C-29.66625523 363.96473406 -45.26022308 380.42466076 -67.15625 393.9765625 C-68.26637451 394.66685547 -68.26637451 394.66685547 -69.39892578 395.37109375 C-74.44803023 398.44241776 -79.58641661 400.93935567 -85.03125 403.2265625 C-86.18367187 403.73058594 -87.33609375 404.23460937 -88.5234375 404.75390625 C-95.48351637 407.65527862 -102.42545899 410.04718599 -109.71875 411.9765625 C-110.46560059 412.17499756 -111.21245117 412.37343262 -111.98193359 412.57788086 C-124.42710259 415.73579182 -136.43408002 416.6689589 -149.21875 416.6640625 C-150.47289703 416.66516525 -150.47289703 416.66516525 -151.75238037 416.66629028 C-185.75612511 416.58804526 -216.0119131 406.13961491 -244.03125 387.2265625 C-245.5551879 388.53764726 -247.07806881 389.84996672 -248.59814453 391.16552734 C-250.42284813 392.7111974 -252.27499496 394.22456674 -254.14013672 395.72119141 C-270.95559057 408.62715821 -270.95559057 408.62715821 -279.60874939 427.02577209 C-280.32054366 435.79610056 -279.45788968 444.56673773 -278.03125 453.2265625 C-277.22917114 453.61400635 -277.22917114 453.61400635 -276.41088867 454.00927734 C-268.52341782 457.87461294 -262.68577494 461.88295509 -258.9140625 470.11328125 C-256.78564013 477.61926632 -256.34207439 487.56693836 -259.53125 494.7890625 C-263.75363665 501.40512609 -270.20414011 508.34334809 -278.03125 510.2265625 C-285.5637532 511.1014812 -294.70184433 511.84858769 -301.33203125 507.6171875 C-309.20218688 501.1763245 -314.62630096 495.11494351 -315.90625 484.7890625 C-316.41070506 475.4113722 -314.16982712 468.41978502 -308.03125 461.2265625 C-303.6680673 457.15889417 -299.70004008 455.0564657 -294.03125 453.2265625 C-294.07314453 452.08703125 -294.11503906 450.9475 -294.15820312 449.7734375 C-294.303769 445.51728222 -294.39511418 441.26134326 -294.47070312 437.00341797 C-294.51076363 435.16612671 -294.5652319 433.32908779 -294.63476562 431.49267578 C-295.2000433 416.17198819 -295.2000433 416.17198819 -292.25 411.26171875 C-290.2760384 409.31243167 -288.31906916 407.77944722 -286.03125 406.2265625 C-285.70125 405.5665625 -285.37125 404.9065625 -285.03125 404.2265625 C-284.37125 404.2265625 -283.71125 404.2265625 -283.03125 404.2265625 C-282.70125 403.2365625 -282.37125 402.2465625 -282.03125 401.2265625 C-280.48242188 399.69897461 -280.48242188 399.69897461 -278.5 398.06640625 C-273.93826516 394.19605934 -269.73400378 390.04240498 -265.53125 385.7890625 C-264.80421875 385.05751953 -264.0771875 384.32597656 -263.328125 383.57226562 C-261.56015501 381.79266426 -259.79458622 380.01075332 -258.03125 378.2265625 C-259.82766926 374.28795877 -262.36056513 371.95137712 -265.59375 369.1640625 C-271.40220999 363.98455512 -276.34783571 358.45969888 -281.03125 352.2265625 C-281.74667969 351.288125 -282.46210938 350.3496875 -283.19921875 349.3828125 C-303.47350238 321.53707073 -313.49300772 288.5041539 -313.34375 254.1640625 C-313.34192719 253.49291412 -313.34010437 252.82176575 -313.33822632 252.13027954 C-313.17706603 216.64929289 -302.80559318 181.03057511 -280.03125 153.2265625 C-279.56493164 152.65631348 -279.09861328 152.08606445 -278.61816406 151.49853516 C-260.66274034 129.71979565 -238.55796925 112.33605412 -212.03125 102.2265625 C-211.27263672 101.92911133 -210.51402344 101.63166016 -209.73242188 101.32519531 C-172.45631266 86.83565977 -131.51867471 86.58384049 -93.984375 100.50927734 C-92.20912019 101.16123967 -90.4176923 101.76873269 -88.625 102.37109375 C-73.69427201 107.60054427 -60.62523647 116.84154313 -48.03125 126.2265625 C-47.15855469 126.87367188 -46.28585937 127.52078125 -45.38671875 128.1875 C-43.59457835 129.52454345 -41.81142529 130.87362928 -40.03125 132.2265625 C-39.33 131.453125 -38.62875 130.6796875 -37.90625 129.8828125 C-36.94801834 128.83063656 -35.98967912 127.77855858 -35.03125 126.7265625 C-34.57363281 126.22125 -34.11601562 125.7159375 -33.64453125 125.1953125 C-33.17402344 124.6796875 -32.70351563 124.1640625 -32.21875 123.6328125 C-31.51413635 122.84656494 -31.51413635 122.84656494 -30.79528809 122.04443359 C-29.03125 120.2265625 -29.03125 120.2265625 -26.99743652 118.60205078 C-23.67932803 115.82110882 -21.37615105 113.63810421 -20.32861328 109.35095215 C-20.10756736 105.93878544 -20.1307924 102.61255814 -20.25 99.1953125 C-20.26697937 97.3478241 -20.26697937 97.3478241 -20.28430176 95.4630127 C-20.3288992 91.54924565 -20.42924781 87.63921236 -20.53125 83.7265625 C-20.57593052 81.06515778 -20.60789504 78.40378812 -20.640625 75.7421875 C-20.72858105 69.23571649 -20.86225818 62.73140626 -21.03125 56.2265625 C-21.57806931 55.96273773 -22.12488861 55.69891296 -22.6882782 55.42709351 C-23.40691544 55.0752298 -24.12555267 54.72336609 -24.8659668 54.36083984 C-25.5777861 54.01451508 -26.28960541 53.66819031 -27.022995 53.31137085 C-33.16876189 49.99158366 -38.65325961 43.76603607 -41.03125 37.2265625 C-42.89472841 29.26684756 -43.1368518 21.47979234 -39.03125 14.2265625 C-30.69464958 0.98149641 -15.4760172 -7.01666882 0 0 Z " fill="#F2A42E" transform="translate(385.03125,1.7734375)"/>
<path d="M0 0 C8.79929739 5.48210195 14.81694367 12.44487294 17.58984375 22.47265625 C18.86874704 29.8692 16.72100841 36.9723683 13.21875 43.4765625 C5.57218137 52.82236861 5.57218137 52.82236861 -0.6730957 54.82739258 C-1.48792923 55.09127274 -2.30276276 55.35515289 -3.14228821 55.62702942 C-3.7656456 55.82487534 -4.38900299 56.02272125 -5.03125 56.2265625 C-5.02236755 56.99220016 -5.01348511 57.75783783 -5.0043335 58.54667664 C-4.92410403 65.77071019 -4.86324366 72.99452699 -4.82400131 80.21889019 C-4.80314788 83.93282299 -4.77487245 87.64638691 -4.72949219 91.36010742 C-4.68595254 94.94573898 -4.662096 98.5310163 -4.65174103 102.11689186 C-4.64436406 103.48323962 -4.62995819 104.84956852 -4.60832977 106.215765 C-4.57919428 108.13282655 -4.57761524 110.05024641 -4.57714844 111.9675293 C-4.56826599 113.05784958 -4.55938354 114.14816986 -4.55023193 115.27153015 C-5.29524508 119.84836021 -7.78299867 122.24820335 -11.34375 125.0390625 C-13.68527085 126.94495157 -15.40740259 128.75065193 -17.34375 131.0390625 C-20.89269161 135.20555122 -24.82859218 138.73344432 -29.03125 142.2265625 C-27.82492548 145.65994766 -26.64647816 147.73020835 -24.03125 150.2265625 C-24.03125 150.8865625 -24.03125 151.5465625 -24.03125 152.2265625 C-23.37125 152.2265625 -22.71125 152.2265625 -22.03125 152.2265625 C-3.86653754 173.15466936 5.7304391 199.47088219 10.96875 226.2265625 C11.16855469 227.20109375 11.36835938 228.175625 11.57421875 229.1796875 C12.09016206 233.16420022 11.96875 237.20878462 11.96875 241.2265625 C25.82875 241.2265625 39.68875 241.2265625 53.96875 241.2265625 C55.45375 236.7715625 55.45375 236.7715625 56.96875 232.2265625 C61.76977089 225.44551969 68.84868416 220.89380035 76.96875 219.2265625 C85.6827784 218.29400858 92.7562417 220.00210039 99.75 225.35546875 C108.5937141 233.06830561 108.5937141 233.06830561 109.29101562 238.94042969 C109.38215866 242.28622683 109.4392616 245.62962863 109.46875 248.9765625 C109.530625 250.7090625 109.530625 250.7090625 109.59375 252.4765625 C109.65560658 259.24985833 109.1205381 263.55313606 104.54150391 268.69726562 C102.72600216 270.46260294 100.97362811 272.13274766 98.90625 273.6015625 C98.27589844 274.06304687 97.64554687 274.52453125 96.99609375 275 C89.57476741 279.48997393 79.81788802 279.58407273 71.4609375 277.64453125 C64.55940175 274.58494354 58.77211548 268.17752419 54.90625 261.8515625 C53.96875 259.2265625 53.96875 259.2265625 53.96875 256.2265625 C40.43875 256.2265625 26.90875 256.2265625 12.96875 256.2265625 C12.96875 259.5265625 12.96875 262.8265625 12.96875 266.2265625 C12.79235296 268.09735861 12.56983656 269.96537026 12.26953125 271.8203125 C12.11508545 272.77873047 11.96063965 273.73714844 11.80151367 274.72460938 C11.54398315 276.21057617 11.54398315 276.21057617 11.28125 277.7265625 C11.01115112 279.29760742 11.01115112 279.29760742 10.7355957 280.90039062 C8.34935069 294.26580906 5.04923582 306.81638339 -0.79614258 319.10351562 C-2.39370738 322.49108018 -3.03125 324.38990127 -3.03125 328.2265625 C-1.10924128 330.67475334 -1.10924128 330.67475334 1.46875 333.0390625 C2.3040625 333.84988281 3.139375 334.66070312 4 335.49609375 C4.98619907 336.40991592 5.97608129 337.31977234 6.96875 338.2265625 C7.54439697 338.75846191 8.12004395 339.29036133 8.71313477 339.83837891 C12.40640626 343.16971261 16.13228011 346.00623838 20.30859375 348.7109375 C27.80412378 354.1282123 34.54243738 359.69882849 36.58825684 369.06182861 C38.80466737 384.91666724 37.88620063 401.2931556 36.96875 417.2265625 C38.38692017 417.67793579 38.38692017 417.67793579 39.83374023 418.13842773 C47.17621655 420.68693774 51.55079287 426.41873244 55.05859375 433.11328125 C58.21147076 440.43390984 57.82360099 448.48690666 55.40625 455.9765625 C51.91140614 464.55481561 45.37360267 469.63296825 36.96875 473.2265625 C27.68018578 475.48439811 20.1458709 474.02220778 11.84375 469.5390625 C4.2755764 463.45161852 -0.19967696 457.3157227 -1.34375 447.5625 C-1.81253665 437.1612961 1.82283756 429.92631994 8.578125 422.234375 C10.96875 420.2265625 10.96875 420.2265625 18.96875 416.2265625 C19.29875 401.3765625 19.62875 386.5265625 19.96875 371.2265625 C18.97875 370.8965625 17.98875 370.5665625 16.96875 370.2265625 C15.6015625 368.80078125 15.6015625 368.80078125 14.09375 366.9140625 C10.83726097 363.06423012 7.31749865 359.67355655 3.59375 356.2890625 C-1.76943542 351.41393081 -6.9640759 346.41157785 -12.03125 341.2265625 C-12.68609375 342.07476562 -13.3409375 342.92296875 -14.015625 343.796875 C-29.66625523 363.96473406 -45.26022308 380.42466076 -67.15625 393.9765625 C-68.26637451 394.66685547 -68.26637451 394.66685547 -69.39892578 395.37109375 C-74.44803023 398.44241776 -79.58641661 400.93935567 -85.03125 403.2265625 C-86.18367187 403.73058594 -87.33609375 404.23460937 -88.5234375 404.75390625 C-95.48351637 407.65527862 -102.42545899 410.04718599 -109.71875 411.9765625 C-110.46560059 412.17499756 -111.21245117 412.37343262 -111.98193359 412.57788086 C-124.42710259 415.73579182 -136.43408002 416.6689589 -149.21875 416.6640625 C-150.47289703 416.66516525 -150.47289703 416.66516525 -151.75238037 416.66629028 C-185.75612511 416.58804526 -216.0119131 406.13961491 -244.03125 387.2265625 C-245.5551879 388.53764726 -247.07806881 389.84996672 -248.59814453 391.16552734 C-250.42284813 392.7111974 -252.27499496 394.22456674 -254.14013672 395.72119141 C-270.95559057 408.62715821 -270.95559057 408.62715821 -279.60874939 427.02577209 C-280.32054366 435.79610056 -279.45788968 444.56673773 -278.03125 453.2265625 C-277.22917114 453.61400635 -277.22917114 453.61400635 -276.41088867 454.00927734 C-268.52341782 457.87461294 -262.68577494 461.88295509 -258.9140625 470.11328125 C-256.78564013 477.61926632 -256.34207439 487.56693836 -259.53125 494.7890625 C-263.75363665 501.40512609 -270.20414011 508.34334809 -278.03125 510.2265625 C-285.5637532 511.1014812 -294.70184433 511.84858769 -301.33203125 507.6171875 C-309.20218688 501.1763245 -314.62630096 495.11494351 -315.90625 484.7890625 C-316.41070506 475.4113722 -314.16982712 468.41978502 -308.03125 461.2265625 C-303.6680673 457.15889417 -299.70004008 455.0564657 -294.03125 453.2265625 C-294.07314453 452.08703125 -294.11503906 450.9475 -294.15820312 449.7734375 C-294.303769 445.51728222 -294.39511418 441.26134326 -294.47070312 437.00341797 C-294.51076363 435.16612671 -294.5652319 433.32908779 -294.63476562 431.49267578 C-295.2000433 416.17198819 -295.2000433 416.17198819 -292.25 411.26171875 C-290.2760384 409.31243167 -288.31906916 407.77944722 -286.03125 406.2265625 C-285.70125 405.5665625 -285.37125 404.9065625 -285.03125 404.2265625 C-284.37125 404.2265625 -283.71125 404.2265625 -283.03125 404.2265625 C-282.70125 403.2365625 -282.37125 402.2465625 -282.03125 401.2265625 C-280.48242188 399.69897461 -280.48242188 399.69897461 -278.5 398.06640625 C-273.93826516 394.19605934 -269.73400378 390.04240498 -265.53125 385.7890625 C-264.80421875 385.05751953 -264.0771875 384.32597656 -263.328125 383.57226562 C-261.56015501 381.79266426 -259.79458622 380.01075332 -258.03125 378.2265625 C-259.82766926 374.28795877 -262.36056513 371.95137712 -265.59375 369.1640625 C-271.40220999 363.98455512 -276.34783571 358.45969888 -281.03125 352.2265625 C-281.74667969 351.288125 -282.46210938 350.3496875 -283.19921875 349.3828125 C-303.47350238 321.53707073 -313.49300772 288.5041539 -313.34375 254.1640625 C-313.34192719 253.49291412 -313.34010437 252.82176575 -313.33822632 252.13027954 C-313.17706603 216.64929289 -302.80559318 181.03057511 -280.03125 153.2265625 C-279.56493164 152.65631348 -279.09861328 152.08606445 -278.61816406 151.49853516 C-260.66274034 129.71979565 -238.55796925 112.33605412 -212.03125 102.2265625 C-211.27263672 101.92911133 -210.51402344 101.63166016 -209.73242188 101.32519531 C-172.45631266 86.83565977 -131.51867471 86.58384049 -93.984375 100.50927734 C-92.20912019 101.16123967 -90.4176923 101.76873269 -88.625 102.37109375 C-73.69427201 107.60054427 -60.62523647 116.84154313 -48.03125 126.2265625 C-47.15855469 126.87367188 -46.28585937 127.52078125 -45.38671875 128.1875 C-43.59457835 129.52454345 -41.81142529 130.87362928 -40.03125 132.2265625 C-39.33 131.453125 -38.62875 130.6796875 -37.90625 129.8828125 C-36.94801834 128.83063656 -35.98967912 127.77855858 -35.03125 126.7265625 C-34.57363281 126.22125 -34.11601562 125.7159375 -33.64453125 125.1953125 C-33.17402344 124.6796875 -32.70351563 124.1640625 -32.21875 123.6328125 C-31.51413635 122.84656494 -31.51413635 122.84656494 -30.79528809 122.04443359 C-29.03125 120.2265625 -29.03125 120.2265625 -26.99743652 118.60205078 C-23.67932803 115.82110882 -21.37615105 113.63810421 -20.32861328 109.35095215 C-20.10756736 105.93878544 -20.1307924 102.61255814 -20.25 99.1953125 C-20.26697937 97.3478241 -20.26697937 97.3478241 -20.28430176 95.4630127 C-20.3288992 91.54924565 -20.42924781 87.63921236 -20.53125 83.7265625 C-20.57593052 81.06515778 -20.60789504 78.40378812 -20.640625 75.7421875 C-20.72858105 69.23571649 -20.86225818 62.73140626 -21.03125 56.2265625 C-21.57806931 55.96273773 -22.12488861 55.69891296 -22.6882782 55.42709351 C-23.40691544 55.0752298 -24.12555267 54.72336609 -24.8659668 54.36083984 C-25.5777861 54.01451508 -26.28960541 53.66819031 -27.022995 53.31137085 C-33.16876189 49.99158366 -38.65325961 43.76603607 -41.03125 37.2265625 C-42.89472841 29.26684756 -43.1368518 21.47979234 -39.03125 14.2265625 C-30.69464958 0.98149641 -15.4760172 -7.01666882 0 0 Z M-198.03125 111.2265625 C-198.7104248 111.44296387 -199.38959961 111.65936523 -200.08935547 111.88232422 C-221.82557508 118.97564265 -239.60303717 131.60140477 -256.03125 147.2265625 C-256.78921875 147.90847656 -257.5471875 148.59039062 -258.328125 149.29296875 C-271.75435845 161.81268644 -282.17360064 178.88242817 -289.15625 195.7265625 C-289.59001953 196.77175049 -290.02378906 197.81693848 -290.47070312 198.89379883 C-294.09091581 207.88321542 -296.40674259 216.69674869 -298.03125 226.2265625 C-298.25296875 227.29003906 -298.4746875 228.35351562 -298.703125 229.44921875 C-305.62077782 265.67341425 -295.77681383 306.30157613 -275.50390625 336.7109375 C-271.9787445 341.80788883 -268.12194481 346.57411735 -264.03125 351.2265625 C-263.2784375 352.10054687 -262.525625 352.97453125 -261.75 353.875 C-248.99508144 368.42084891 -233.20990707 379.47668577 -216.03125 388.2265625 C-215.09490723 388.70585205 -215.09490723 388.70585205 -214.13964844 389.19482422 C-194.78346429 398.88304512 -172.47367401 403.64916458 -150.90625 403.5390625 C-149.73191406 403.53342285 -148.55757812 403.5277832 -147.34765625 403.52197266 C-130.29821801 403.28672768 -115.04668337 399.92497771 -99.03125 394.2265625 C-98.36641602 393.99598145 -97.70158203 393.76540039 -97.01660156 393.52783203 C-80.55122385 387.74689753 -66.26293824 378.47489704 -53.03125 367.2265625 C-52.51224121 366.79263184 -51.99323242 366.35870117 -51.45849609 365.91162109 C-23.32602906 342.20188105 -4.67105531 305.67817635 -1.03125 269.2265625 C-0.73794516 264.32755668 -0.70066109 259.42945977 -0.71557617 254.52294922 C-0.7187379 252.35983834 -0.69515214 250.19809995 -0.66992188 248.03515625 C-0.62510149 238.11769752 -1.85805848 228.89307112 -4.03125 219.2265625 C-4.20873779 218.40929687 -4.38622559 217.59203125 -4.5690918 216.75 C-10.67746946 190.36748771 -25.87415748 167.77289875 -44.03125 148.2265625 C-44.63195312 147.56011719 -45.23265625 146.89367187 -45.8515625 146.20703125 C-61.58168688 129.48951811 -83.39795717 118.07076381 -105.03125 111.2265625 C-106.16626953 110.85942139 -106.16626953 110.85942139 -107.32421875 110.48486328 C-136.77754605 101.10010043 -168.71561562 101.79308537 -198.03125 111.2265625 Z " fill="#5B3825" transform="translate(385.03125,1.7734375)"/>
<path d="M0 0 C20.06963162 18.6833372 34.86011466 42.70046455 42.80126953 68.9609375 C43.14762451 70.10574585 43.14762451 70.10574585 43.50097656 71.27368164 C46.92988464 83.41783941 47.68041099 95.54359736 47.61376953 108.0859375 C47.61128204 108.83483246 47.60879456 109.58372742 47.60623169 110.35531616 C47.44041308 142.67357794 38.06042597 172.5584797 18.30126953 198.4609375 C17.63353516 199.33878906 16.96580078 200.21664062 16.27783203 201.12109375 C14.33134103 203.60998639 12.33559586 206.0434468 10.30126953 208.4609375 C9.29 209.67523438 9.29 209.67523438 8.25830078 210.9140625 C-14.72263802 237.53678942 -51.26472695 256.28397599 -86.38427734 259.31152344 C-103.90417697 260.44255493 -120.62532307 259.56252345 -137.69873047 255.4609375 C-138.4423584 255.28965332 -139.18598633 255.11836914 -139.95214844 254.94189453 C-162.60564836 249.58350021 -183.13254994 237.50538249 -200.69873047 222.4609375 C-201.60236328 221.69136719 -202.50599609 220.92179687 -203.43701172 220.12890625 C-209.93701723 214.42004941 -215.45403229 208.33129859 -220.69873047 201.4609375 C-221.37677734 200.58695313 -222.05482422 199.71296875 -222.75341797 198.8125 C-232.6347016 185.70153611 -239.12043986 171.80859807 -244.69873047 156.4609375 C-245.33488281 154.72263672 -245.33488281 154.72263672 -245.98388672 152.94921875 C-253.77868097 128.85352398 -253.83726269 101.07507152 -248.69873047 76.4609375 C-248.44349609 75.21441406 -248.18826172 73.96789062 -247.92529297 72.68359375 C-241.83411523 46.94976488 -227.73728909 24.51014542 -209.69873047 5.4609375 C-208.92916016 4.63851562 -208.15958984 3.81609375 -207.36669922 2.96875 C-152.12572261 -54.32479924 -57.62637338 -52.20992495 0 0 Z M-185.69873047 15.4609375 C-186.51083984 16.12609375 -187.32294922 16.79125 -188.15966797 17.4765625 C-210.77581345 36.73952553 -224.6377592 65.58739883 -227.38623047 94.9375 C-230.19421183 131.20194113 -220.46622259 164.51426741 -197.13623047 192.59765625 C-175.0621321 217.72665217 -144.24632964 232.93367811 -110.95605469 235.31591797 C-77.83237193 237.44391576 -45.99876706 226.98329739 -20.69873047 205.4609375 C-19.81958984 204.73261719 -18.94044922 204.00429688 -18.03466797 203.25390625 C4.21916222 184.13490354 20.7827159 153.84406323 23.30126953 124.4609375 C23.52433196 119.73087015 23.59479106 115.00841023 23.61376953 110.2734375 C23.62210815 108.52800659 23.62210815 108.52800659 23.63061523 106.74731445 C23.3490976 72.70292923 8.76921762 42.21508778 -15.25488281 18.48974609 C-42.10551866 -7.19565991 -76.48196673 -16.32568847 -112.85693359 -15.62353516 C-139.96927726 -14.81761841 -165.29402487 -1.76970278 -185.69873047 15.4609375 Z " fill="#F8BD40" transform="translate(336.69873046875,145.5390625)"/>
<path d="M0 0 C8.93688477 -0.04537376 17.8736917 -0.08198641 26.81066608 -0.10362434 C30.96146778 -0.11401493 35.11218586 -0.12808667 39.26293945 -0.15087891 C43.27650449 -0.17277727 47.28998963 -0.18460406 51.30360985 -0.18975449 C52.8268376 -0.19341999 54.3500615 -0.20057683 55.87325478 -0.21146011 C64.44187797 -0.27018992 72.62670878 0.016606 81 2 C81.81652542 2.19141571 82.63305084 2.38283142 83.47431946 2.58004761 C90.63451687 4.39434156 96.37919973 9.007431 100.41796875 15.16015625 C104.27489313 22.60945063 105.3316292 30.46491479 103.3515625 38.6953125 C100.73083562 46.01990813 96.41275406 50.72483062 90 55 C91.00564784 57.64468714 91.63272495 58.79319796 94.13671875 60.203125 C95.39935547 60.72132813 95.39935547 60.72132813 96.6875 61.25 C103.82790078 64.61383043 108.41561959 69.63473653 111.40014648 76.97900391 C113.93970417 85.53515306 113.54622856 97.38542006 109.5 105.3125 C102.16635374 116.27003235 92.33077184 120.56738975 79.8319397 123.37368774 C72.61669502 124.55298505 65.3973027 124.36520094 58.10546875 124.29296875 C56.42011395 124.28735897 54.73475419 124.28309543 53.0493927 124.28010559 C48.6583353 124.26876538 44.26758554 124.23939435 39.87664795 124.20599365 C35.37809406 124.17505646 30.87948945 124.16155022 26.38085938 124.14648438 C17.58708412 124.11451178 8.79361602 124.06183532 0 124 C0 119.05 0 114.1 0 109 C4.98046875 108.70703125 4.98046875 108.70703125 9.9609375 108.4140625 C13.10562319 108.29782654 13.10562319 108.29782654 15 106 C15.18813821 103.19850486 15.2517501 100.49663997 15.22705078 97.69482422 C15.22734283 96.83621796 15.22763489 95.97761169 15.22793579 95.09298706 C15.22653922 92.24678543 15.21096273 89.40084356 15.1953125 86.5546875 C15.19158353 84.58456566 15.18873601 82.61444198 15.18673706 80.64431763 C15.17909146 75.45256452 15.15943504 70.26092286 15.1373291 65.06921387 C15.1168906 59.7740225 15.10773962 54.47881317 15.09765625 49.18359375 C15.07619001 38.78901346 15.04204292 28.39451599 15 18 C12.16730334 16.58365167 9.52533562 16.6536995 6.375 16.4375 C4.27125 16.293125 2.1675 16.14875 0 16 C0 10.72 0 5.44 0 0 Z " fill="#F9F1D9" transform="translate(177,193)"/>
<path d="M0 0 C2.46706764 2.17571149 4.85854884 4.40895269 7.234375 6.68359375 C7.98074219 7.36679688 8.72710937 8.05 9.49609375 8.75390625 C30.01038331 28.15834768 43.2295082 57.57388637 44.35742188 85.75830078 C44.68747601 99.63466209 44.97373376 113.21905859 41.234375 126.68359375 C41.04633301 127.37501465 40.85829102 128.06643555 40.66455078 128.77880859 C35.70749831 146.52876338 27.28570861 162.73197652 15.234375 176.68359375 C14.77305176 177.22709473 14.31172852 177.7705957 13.83642578 178.33056641 C-6.68030538 202.30728135 -37.33839015 218.43175401 -68.87890625 221.40625 C-104.75825767 223.96648513 -137.79768723 213.51947904 -165.07836914 189.96801758 C-179.55052197 177.09282246 -190.54275023 161.70744433 -197.765625 143.68359375 C-198.21550781 142.56597656 -198.66539062 141.44835937 -199.12890625 140.296875 C-210.62428375 110.01554134 -209.96441066 74.03987248 -197.16748047 44.23730469 C-182.8014951 12.71214997 -155.70082878 -10.80789847 -123.5703125 -23.03515625 C-81.49931815 -37.69526278 -33.96456055 -28.44771808 0 0 Z M-161.765625 15.68359375 C-162.42820313 16.27140625 -163.09078125 16.85921875 -163.7734375 17.46484375 C-181.58246857 33.90394935 -193.37881102 59.93348539 -194.98657227 83.98950195 C-195.48101901 98.94992769 -195.36157828 113.35337619 -190.765625 127.68359375 C-190.55663574 128.35600098 -190.34764648 129.0284082 -190.13232422 129.72119141 C-185.27654323 144.95052099 -177.61445055 158.90244726 -166.765625 170.68359375 C-166.28609375 171.20550293 -165.8065625 171.72741211 -165.3125 172.26513672 C-146.71235562 192.28025421 -121.09162405 207.09192724 -93.38134766 208.9050293 C-89.67329053 209.02347902 -85.97556609 209.06379604 -82.265625 209.05859375 C-81.60843475 209.05804993 -80.95124451 209.0575061 -80.2741394 209.0569458 C-52.58097564 208.95196952 -26.33909303 199.58565743 -5.765625 180.68359375 C-5.2814209 180.24176758 -4.7972168 179.79994141 -4.29833984 179.34472656 C16.47180626 160.18151632 30.80192104 133.21033857 32.40283203 104.68164062 C32.86549824 91.74247364 32.81045358 79.20760922 29.234375 66.68359375 C28.96753906 65.69230469 28.70070313 64.70101562 28.42578125 63.6796875 C22.77461863 44.81736249 11.97630281 28.54434102 -1.765625 14.68359375 C-2.56871094 13.86761719 -3.37179687 13.05164063 -4.19921875 12.2109375 C-14.00185132 2.83809995 -26.21166971 -4.29869881 -38.765625 -9.31640625 C-39.5390625 -9.66058594 -40.3125 -10.00476563 -41.109375 -10.359375 C-82.78341826 -27.56969983 -130.11371288 -14.54452993 -161.765625 15.68359375 Z " fill="#553421" transform="translate(315.765625,159.31640625)"/>
<path d="M0 0 C1.1034375 0.0103125 2.206875 0.020625 3.34375 0.03125 C7.06380771 0.58373382 9.81589663 1.81589663 12.5 4.5 C12.58651611 5.91570123 12.60704904 7.335595 12.59765625 8.75390625 C12.59282227 10.03491211 12.59282227 10.03491211 12.58789062 11.34179688 C12.57532227 12.68854492 12.57532227 12.68854492 12.5625 14.0625 C12.55798828 14.96419922 12.55347656 15.86589844 12.54882812 16.79492188 C12.53700225 19.03001314 12.5205222 21.26497437 12.5 23.5 C13.13413818 23.52513672 13.76827637 23.55027344 14.42163086 23.57617188 C26.29260676 24.15942422 37.22057542 28.89755975 45.3984375 37.49609375 C53.09953433 46.61068304 55.30068391 56.02046579 54.82421875 67.7578125 C54.41877064 72.437563 53.50239651 76.26899482 51.5 80.5 C51.14035156 81.26441406 50.78070313 82.02882813 50.41015625 82.81640625 C49.47562283 84.72870774 48.49272314 86.61724923 47.5 88.5 C48.09167969 89.03367187 48.68335938 89.56734375 49.29296875 90.1171875 C59.19416551 99.45306307 63.4478515 109.20525885 63.875 122.75 C63.65693335 134.96173246 59.75179812 144.46299617 51.5 153.5 C40.81710942 163.0138874 26.7285544 167.78405463 12.5 167.5 C12.52618408 168.05461914 12.55236816 168.60923828 12.5793457 169.18066406 C12.68354003 171.70348569 12.74838891 174.22585489 12.8125 176.75 C12.85439453 177.62269531 12.89628906 178.49539063 12.93945312 179.39453125 C13.0615755 185.79374379 13.0615755 185.79374379 10.453125 189.07421875 C6.76131909 190.85663827 4.03134175 191.06656538 -0.0625 191.0625 C-1.36316406 191.08441406 -2.66382813 191.10632813 -4.00390625 191.12890625 C-7.5 190.5 -7.5 190.5 -9.94921875 188.515625 C-12.04342498 184.44326427 -11.9462109 181.18903094 -11.75 176.6875 C-11.73195312 175.89923828 -11.71390625 175.11097656 -11.6953125 174.29882812 C-11.64844048 172.36535739 -11.5767041 170.43251715 -11.5 168.5 C-13.48 168.5 -15.46 168.5 -17.5 168.5 C-17.45359375 169.66917969 -17.4071875 170.83835937 -17.359375 172.04296875 C-17.32184406 173.5911202 -17.28544531 175.13929939 -17.25 176.6875 C-17.19972656 177.84088867 -17.19972656 177.84088867 -17.1484375 179.01757812 C-17.08236741 182.86616094 -17.26654877 185.06305618 -19.11328125 188.51953125 C-22.21451695 191.09289704 -23.94598073 191.11074736 -27.9375 191 C-29.04996094 190.9896875 -30.16242188 190.979375 -31.30859375 190.96875 C-34.76098167 190.46166732 -36.7119467 189.56447504 -39.5 187.5 C-40.6482685 185.203463 -40.61561175 183.91686833 -40.59765625 181.3671875 C-40.59443359 180.56152344 -40.59121094 179.75585938 -40.58789062 178.92578125 C-40.57951172 178.08402344 -40.57113281 177.24226562 -40.5625 176.375 C-40.55798828 175.52550781 -40.55347656 174.67601562 -40.54882812 173.80078125 C-40.53702874 171.70049091 -40.51909306 169.6002367 -40.5 167.5 C-41.23637695 167.52094727 -41.97275391 167.54189453 -42.73144531 167.56347656 C-46.07082442 167.64667144 -49.40998549 167.69867157 -52.75 167.75 C-53.90886719 167.78351563 -55.06773437 167.81703125 -56.26171875 167.8515625 C-57.37675781 167.86445313 -58.49179688 167.87734375 -59.640625 167.890625 C-60.66704102 167.91157227 -61.69345703 167.93251953 -62.75097656 167.95410156 C-65.5 167.5 -65.5 167.5 -67.83081055 165.86035156 C-71.09978776 161.23778732 -70.11093149 155.46421189 -70.0625 150 C-70.08634766 148.76378906 -70.11019531 147.52757812 -70.13476562 146.25390625 C-70.13283203 145.06667969 -70.13089844 143.87945312 -70.12890625 142.65625 C-70.12963135 141.57150391 -70.13035645 140.48675781 -70.13110352 139.36914062 C-69.5 136.5 -69.5 136.5 -67.71069336 134.11523438 C-64.5 132.5 -64.5 132.5 -52.5 132.5 C-52.5 108.08 -52.5 83.66 -52.5 58.5 C-57.12 58.5 -61.74 58.5 -66.5 58.5 C-70.70800597 54.29199403 -69.92000496 51.22647998 -69.95898438 45.47851562 C-69.95189453 44.18623047 -69.94480469 42.89394531 -69.9375 41.5625 C-69.95748047 40.27408203 -69.97746094 38.98566406 -69.99804688 37.65820312 C-69.99740234 36.42134766 -69.99675781 35.18449219 -69.99609375 33.91015625 C-69.99794678 32.77715088 -69.9997998 31.64414551 -70.00170898 30.47680664 C-69.5 27.5 -69.5 27.5 -67.83520508 25.1237793 C-64.88585472 23.07295554 -63.21102829 23.03650963 -59.640625 23.109375 C-58.52558594 23.12226563 -57.41054687 23.13515625 -56.26171875 23.1484375 C-54.52341797 23.19871094 -54.52341797 23.19871094 -52.75 23.25 C-50.98849609 23.27707031 -50.98849609 23.27707031 -49.19140625 23.3046875 C-46.2934466 23.3518088 -43.39713582 23.41758695 -40.5 23.5 C-40.54640625 22.24703125 -40.5928125 20.9940625 -40.640625 19.703125 C-40.67814813 18.05210719 -40.71454771 16.40106358 -40.75 14.75 C-40.78351563 13.925 -40.81703125 13.1 -40.8515625 12.25 C-40.91184356 8.51257417 -40.92260577 6.19580546 -38.953125 2.953125 C-35.53921387 0.93087191 -32.94752373 0.96891714 -29 1 C-27.03546875 0.98453125 -27.03546875 0.98453125 -25.03125 0.96875 C-21.5 1.5 -21.5 1.5 -19.046875 2.953125 C-16.70507097 6.80882255 -17.07066249 10.33553832 -17.25 14.75 C-17.26804688 15.59046875 -17.28609375 16.4309375 -17.3046875 17.296875 C-17.35169202 19.36507395 -17.42343276 21.43268441 -17.5 23.5 C-15.52 23.5 -13.54 23.5 -11.5 23.5 C-11.55800781 22.25863281 -11.61601562 21.01726562 -11.67578125 19.73828125 C-11.72269238 18.09639186 -11.76819109 16.45446168 -11.8125 14.8125 C-11.85439453 13.99587891 -11.89628906 13.17925781 -11.93945312 12.33789062 C-12.02619624 8.05278056 -11.89021474 6.06332294 -9.38671875 2.44921875 C-5.94950888 0.12828814 -4.11440783 -0.11535723 0 0 Z M-59.5 33.5 C-59.5 38.78 -59.5 44.06 -59.5 49.5 C-57.39625 49.644375 -55.2925 49.78875 -53.125 49.9375 C-46.75 50.375 -46.75 50.375 -44.5 51.5 C-44.45373156 62.93921636 -44.41815881 74.37841059 -44.39637566 85.81770134 C-44.38592271 91.12898938 -44.37173603 96.44021356 -44.34912109 101.75146484 C-44.32744648 106.87372595 -44.31544277 111.9959255 -44.31024551 117.11822891 C-44.30654006 119.0759287 -44.29930459 121.03362498 -44.28853989 122.99129868 C-44.27409643 125.72588221 -44.27201904 128.4602089 -44.27294922 131.19482422 C-44.26575867 132.01049866 -44.25856812 132.8261731 -44.25115967 133.66656494 C-44.27189568 139.27189568 -44.27189568 139.27189568 -46.5 141.5 C-49.5390625 141.9140625 -49.5390625 141.9140625 -53.125 142.125 C-56.280625 142.310625 -56.280625 142.310625 -59.5 142.5 C-59.5 147.45 -59.5 152.4 -59.5 157.5 C-49.86717618 157.5909549 -40.23464509 157.66408908 -30.60148621 157.70724869 C-26.12673786 157.72798002 -21.65230261 157.75602749 -17.17773438 157.80175781 C-12.84641516 157.8457389 -8.51539397 157.86924525 -4.18386841 157.87950897 C-2.54472166 157.8868079 -0.90558821 157.90105571 0.73342896 157.92292023 C16.12280316 158.11974537 32.42436514 156.80901047 44.296875 145.83984375 C50.67559831 138.90850828 53.22637977 131.99019431 53.0625 122.625 C53.05154297 121.74239502 53.04058594 120.85979004 53.02929688 119.95043945 C52.72622811 110.84069745 50.35600792 104.92522741 43.6875 98.625 C39.89088779 95.56601531 35.9424314 93.4832283 31.5 91.5 C31.5 87.5 31.5 87.5 33.109375 85.82421875 C33.81578125 85.28410156 34.5221875 84.74398437 35.25 84.1875 C40.90101441 79.52666333 44.01873699 74.43886306 44.73828125 67.0546875 C45.01461432 57.07760916 42.31257213 49.49046106 35.421875 42.1875 C24.24178035 32.37083152 8.31546124 33.3531797 -5.59375 33.40234375 C-7.15173293 33.40421158 -8.70971646 33.40563376 -10.2677002 33.40663147 C-14.34470271 33.41042792 -18.42166893 33.4202333 -22.49865723 33.43133545 C-26.66837066 33.44161169 -30.83809002 33.44614234 -35.0078125 33.45117188 C-43.17189342 33.46185847 -51.33593799 33.47943163 -59.5 33.5 Z " fill="#563522" transform="translate(236.5,159.5)"/>
<path d="M0 0 C-0.7331543 1.95922852 -0.7331543 1.95922852 -2 4 C-3.91333008 4.55834961 -3.91333008 4.55834961 -6.26953125 4.65234375 C-7.14818848 4.70374512 -8.0268457 4.75514648 -8.93212891 4.80810547 C-10.3579126 4.87215576 -10.3579126 4.87215576 -11.8125 4.9375 C-33.13228341 6.37285661 -52.91606845 12.56535695 -72 22 C-72.60714844 22.29358398 -73.21429688 22.58716797 -73.83984375 22.88964844 C-94.9172986 33.14507674 -113.93613823 48.2009267 -128 67 C-128.5775 67.76183594 -129.155 68.52367187 -129.75 69.30859375 C-150.16837371 97.33659285 -161.69139609 130.07314515 -161.375 164.8125 C-161.37234131 165.65652374 -161.36968262 166.50054749 -161.36694336 167.37014771 C-161.31276043 182.0813346 -160.26655811 196.45022403 -158 211 C-160.0684927 208.40568079 -161.54967874 206.04801595 -162.71875 202.9453125 C-163.00983643 202.17316406 -163.30092285 201.40101563 -163.60083008 200.60546875 C-163.89755615 199.78691406 -164.19428223 198.96835937 -164.5 198.125 C-164.80897217 197.27292969 -165.11794434 196.42085937 -165.4362793 195.54296875 C-174.55480256 169.77375561 -175.56359954 140.65025317 -170 114 C-169.74476563 112.75347656 -169.48953125 111.50695312 -169.2265625 110.22265625 C-163.13538476 84.48882738 -149.03855862 62.04920792 -131 43 C-130.23042969 42.17757812 -129.46085937 41.35515625 -128.66796875 40.5078125 C-99.39419848 10.1463254 -42.42950195 -14.14316732 0 0 Z " fill="#FBD35E" transform="translate(258,108)"/>
<path d="M0 0 C2.23370599 3.35055899 2.75749742 5.82192459 3.5625 9.75 C3.81128906 10.94109375 4.06007813 12.1321875 4.31640625 13.359375 C11.42080472 51.19537141 3.86306612 91.42078817 -17.50048828 123.50268555 C-19.2683426 126.05313972 -21.11802318 128.53289948 -23 131 C-24.00160156 132.31677734 -24.00160156 132.31677734 -25.0234375 133.66015625 C-26.9699285 136.14904889 -28.96567367 138.5825093 -31 141 C-31.67417969 141.80953125 -32.34835937 142.6190625 -33.04296875 143.453125 C-56.00584236 170.05492393 -92.52448375 188.8007045 -127.61523438 191.86376953 C-158.07963776 193.60405793 -158.07963776 193.60405793 -167 189 C-168.65740715 188.62331656 -170.32345271 188.27942455 -172 188 C-172 187.67 -172 187.34 -172 187 C-170.70304199 186.97812622 -170.70304199 186.97812622 -169.37988281 186.95581055 C-118.53525499 186.00036369 -78.19621035 173.18454013 -41.97265625 135.9140625 C-40.24745566 133.98995643 -38.61840486 132.0147489 -37 130 C-36.25621094 129.11699219 -35.51242187 128.23398437 -34.74609375 127.32421875 C-23.57632645 113.56740049 -15.4178755 97.8407028 -10 81 C-9.78150391 80.34 -9.56300781 79.68 -9.33789062 79 C-7.71257629 74.0430296 -6.31812186 69.04636612 -5 64 C-4.70150146 62.92709717 -4.70150146 62.92709717 -4.39697266 61.83251953 C-0.40477864 47.07676883 -0.66341599 32.31529946 -0.88354492 17.15380859 C-0.89521698 16.317202 -0.90688904 15.4805954 -0.91891479 14.61863708 C-0.9437306 13.03329687 -0.97422001 11.448032 -1.01126099 9.8629303 C-1.07297945 6.42279355 -1.1094449 3.28522853 0 0 Z " fill="#F2A62D" transform="translate(378,213)"/>
<path d="M0 0 C1.27810547 0.00322266 2.55621094 0.00644531 3.87304688 0.00976562 C5.74959961 -0.0144043 5.74959961 -0.0144043 7.6640625 -0.0390625 C17.29141891 -0.04412686 25.71952995 0.93891048 33.31054688 7.32226562 C37.3010035 11.68220897 38.6494112 15.54384059 38.81054688 21.44726562 C38.48362183 28.11988972 36.90843972 32.03123862 31.99804688 36.57226562 C23.61703063 43.30167699 12.70329573 42.50391734 2.49804688 42.50976562 C1.35400391 42.52201172 0.20996094 42.53425781 -0.96875 42.546875 C-2.05865234 42.54880859 -3.14855469 42.55074219 -4.27148438 42.55273438 C-5.2638208 42.55684326 -6.25615723 42.56095215 -7.27856445 42.56518555 C-9.68945312 42.32226562 -9.68945312 42.32226562 -11.68945312 40.32226562 C-11.8893554 37.4768642 -11.96922288 34.73088779 -11.95507812 31.88476562 C-11.95699158 31.04888916 -11.95890503 30.2130127 -11.96087646 29.35180664 C-11.96223848 27.58316751 -11.95854089 25.8145184 -11.95019531 24.04589844 C-11.93949588 21.33310569 -11.95008989 18.62097519 -11.96289062 15.90820312 C-11.96156903 14.19205582 -11.95900665 12.47590894 -11.95507812 10.75976562 C-11.95912659 9.94515869 -11.96317505 9.13055176 -11.96734619 8.29125977 C-11.89052578 -0.89871978 -8.01140274 0.04670134 0 0 Z " fill="#563623" transform="translate(227.689453125,258.677734375)"/>
<path d="M0 0 C1.23492187 0.00322266 2.46984375 0.00644531 3.7421875 0.00976562 C4.95390625 -0.00634766 6.165625 -0.02246094 7.4140625 -0.0390625 C21.8436738 -0.04692177 21.8436738 -0.04692177 27.16430664 4.70361328 C32.01589145 10.13363989 31.97582285 15.40494011 31.890625 22.40820312 C31.51312128 26.43131423 30.43147626 28.43581562 27.6171875 31.32226562 C19.86321742 36.88137642 12.69629565 36.50481185 3.4921875 36.50976562 C2.28691406 36.52201172 1.08164063 36.53425781 -0.16015625 36.546875 C-1.30871094 36.54880859 -2.45726562 36.55074219 -3.640625 36.55273438 C-4.6939502 36.55684326 -5.74727539 36.56095215 -6.83251953 36.56518555 C-9.3828125 36.32226562 -9.3828125 36.32226562 -11.3828125 34.32226562 C-11.64160156 31.18945312 -11.64160156 31.18945312 -11.6484375 27.19726562 C-11.65035095 26.49456543 -11.6522644 25.79186523 -11.65423584 25.06787109 C-11.65559725 23.58170209 -11.65190382 22.09552118 -11.64355469 20.609375 C-11.63285404 18.33110917 -11.64345089 16.05363186 -11.65625 13.77539062 C-11.6549284 12.33268055 -11.65236599 10.88997096 -11.6484375 9.44726562 C-11.64618164 8.12984375 -11.64392578 6.81242188 -11.64160156 5.45507812 C-11.0667276 -1.50415083 -5.60323952 0.03379147 0 0 Z " fill="#543321" transform="translate(227.3828125,209.677734375)"/>
<path d="M0 0 C2.5 0.5625 2.5 0.5625 4.5625 2.375 C6.36709087 5.34384304 7.30976093 7.84599248 8.375 11.125 C9.62837314 14.70743817 10.26998827 16.34370835 13.0625 19 C17.04185731 20.80879878 21.06776276 22.32836836 25.20703125 23.73046875 C27.5 24.5625 27.5 24.5625 28.5 25.5625 C28.875 27.875 28.875 27.875 28.5 30.5625 C24.66524369 34.76836176 19.79180584 36.00666944 14.5 37.5625 C13.51 37.8925 12.52 38.2225 11.5 38.5625 C10.35442187 40.82492795 10.35442187 40.82492795 9.5 43.5625 C9.17 44.49449219 8.84 45.42648438 8.5 46.38671875 C7.83090091 48.30253763 7.16425081 50.21921349 6.5 52.13671875 C5.5 54.5625 5.5 54.5625 3.5 56.5625 C0.625 57 0.625 57 -2.5 56.5625 C-5.8798579 53.66547894 -6.82949233 50.66733994 -7.9375 46.5 C-8.82835661 43.35168477 -9.36543233 41.72229911 -11.5 39.1875 C-15.22834682 37.16797881 -19.04921526 35.81025359 -23.07421875 34.4921875 C-25.5 33.5625 -25.5 33.5625 -27.5 31.5625 C-27.875 28.625 -27.875 28.625 -27.5 25.5625 C-24.72464904 22.95784261 -22.22594096 22.07977784 -18.5625 21.25 C-13.55968045 19.81325506 -11.22583232 18.16234204 -8.5 13.5625 C-7.88843343 11.26013172 -7.4423489 8.96412403 -7.015625 6.62109375 C-6.00799704 2.59821546 -3.94288635 0.88714943 0 0 Z " fill="#FAC34F" transform="translate(54.5,52.4375)"/>
<path d="M0 0 C3.02671403 0.45400711 3.60632812 1.02563168 5.5 3.375 C6.4921875 5.8984375 6.4921875 5.8984375 7.375 8.75 C9.02858417 13.42692835 10.30909528 16.45958802 14.5 19.375 C17.04966826 20.22897543 19.5693389 20.92523426 22.1953125 21.50390625 C25.04773931 22.58202689 26.00429056 23.75007946 27.5 26.375 C27.25 28.9375 27.25 28.9375 25.5 31.375 C23.3111539 32.32820717 21.11391337 32.9766632 18.8203125 33.63671875 C14.60237291 34.97879044 11.50746228 37.06903038 8.8125 40.5625 C7.3168774 43.76740557 6.25358118 46.99996723 5.24609375 50.38671875 C4.5 52.375 4.5 52.375 2.5 54.375 C0.125 54.8125 0.125 54.8125 -2.5 54.375 C-5.93553047 51.35589746 -6.9761503 48.04804906 -8.3125 43.8125 C-9.57712234 40.13719133 -10.40632721 37.81970896 -13.8125 35.8125 C-17.34271373 34.43631499 -20.84373477 33.3593791 -24.5 32.375 C-25.49 31.715 -26.48 31.055 -27.5 30.375 C-27.9375 27.4375 -27.9375 27.4375 -27.5 24.375 C-24.05463561 21.15723371 -20.40756145 20.39985102 -15.9375 19.31640625 C-12.92983768 18.15479308 -11.52221929 16.8799426 -9.5 14.375 C-8.28774484 11.68896917 -8.28774484 11.68896917 -7.4375 8.8125 C-4.88302115 0.73245317 -4.88302115 0.73245317 0 0 Z " fill="#FAC14E" transform="translate(44.5,346.625)"/>
<path d="M0 0 C4.86479088 2.29971932 7.73361668 5.118559 10 10 C10.79702456 14.94017806 11.20839484 19.74303029 8.7890625 24.26171875 C5.69665722 28.00556981 2.58939937 30.6269877 -2.33203125 31.3359375 C-8.48169091 31.43278253 -12.09879657 30.82293868 -17 27 C-20.69528805 22.26245121 -21.70893214 18.43592565 -21.453125 12.43359375 C-20.51340709 7.38666051 -17.55591228 4.4186259 -13.875 1.0625 C-9.2699582 -0.63936327 -4.8423138 -0.63377342 0 0 Z " fill="#F3A630" transform="translate(378,14)"/>
<path d="M0 0 C4.87190439 1.68642844 8.51428129 4.43459632 11 9 C12.36757601 13.60613024 12.2455478 17.13336069 10.9375 21.75 C8.3930808 26.01805801 5.50518472 28.74740764 1 31 C-3.95482094 31.54360446 -7.87125852 31.56437074 -12.375 29.3125 C-15.86158969 26.24098052 -19.64980022 22.87049003 -20.23828125 18.046875 C-20.41845566 12.47095117 -19.77158562 9.3831941 -16 5 C-10.58420856 0.22894564 -7.09115125 -0.64682799 0 0 Z " fill="#F1A42F" transform="translate(417,431)"/>
<path d="M0 0 C3.4375 1.6875 3.4375 1.6875 6 4 C6.78375 4.66 7.5675 5.32 8.375 6 C11.00127539 10.84850841 10.81941213 15.62038123 10 21 C8.29667902 25.13870756 5.86808429 27.38839516 2.25 29.9375 C-3.26255589 31.73968173 -8.48525614 32.0721671 -13.8125 29.5 C-17.75128124 26.89857239 -19.63972189 23.45329144 -21 19 C-21.87484408 13.69128705 -20.96831152 9.50364506 -18 5 C-12.17645999 -0.25538977 -7.70499757 -0.78466736 0 0 Z " fill="#F2A52F" transform="translate(104,468)"/>
<path d="M0 0 C4.11433957 2.77478715 6.80457309 6.23848728 8.6875 10.8125 C8.99411214 17.00606524 7.91598553 22.1268809 3.6875 26.8125 C-1.26063394 30.34688139 -6.42766704 30.67509767 -12.3125 29.8125 C-16.67879252 27.62935374 -19.83588687 25.03191497 -22.3125 20.8125 C-23.51452708 16.56875807 -24.02511581 12.72479471 -22.4609375 8.52734375 C-17.23644514 -0.48911887 -9.79541688 -3.51156454 0 0 Z " fill="#F2A530" transform="translate(474.3125,236.1875)"/>
<path d="M0 0 C3.04983368 2.52700505 5.41209283 5.26168566 7.1875 8.8125 C7.57441286 13.45545428 7.65940735 15.8686853 5.5625 20.0625 C2.47119276 23.64190839 -0.1745849 26.34837849 -4.98828125 27.1953125 C-10.39376268 27.46785778 -13.65718544 26.48463845 -17.8125 22.8125 C-21.23509263 18.84949801 -22.42074723 15.89183805 -22.13671875 10.76953125 C-21.45823728 6.674119 -19.86621593 3.76743006 -16.8125 1 C-11.68136447 -2.04661172 -5.45476251 -2.30312195 0 0 Z " fill="#F5AB3E" transform="translate(443.8125,139.1875)"/>
<path d="M0 0 C3.17625 -0.061875 6.3525 -0.12375 9.625 -0.1875 C11.1092749 -0.22846802 11.1092749 -0.22846802 12.62353516 -0.27026367 C17.82669214 -0.31917145 21.54756216 -0.01276945 26 3 C28.67991501 7.01987251 28.68445377 10.277269 28 15 C25.41018183 18.88472725 22.41217229 19.83177711 18 21 C14.86809154 21.22903532 11.76298298 21.18955345 8.625 21.125 C5.77875 21.08375 2.9325 21.0425 0 21 C0 14.07 0 7.14 0 0 Z " fill="#F3A72F" transform="translate(227,270)"/>
<path d="M0 0 C16.44843342 -0.43668407 16.44843342 -0.43668407 22 3 C23.5721459 6.14429179 24.00427913 9.6524029 23 13 C18.20151102 17.35123645 14.23844528 17.51729322 8.125 17.25 C5.44375 17.1675 2.7625 17.085 0 17 C0 11.39 0 5.78 0 0 Z " fill="#EDA630" transform="translate(226,220)"/>
<path d="M0 0 C0.66 0.33 1.32 0.66 2 1 C2 15.85 2 30.7 2 46 C-8 51 -8 51 -11 51 C-9.89932004 50.18278283 -8.79430269 49.37140549 -7.6875 48.5625 C-6.76517578 47.88380859 -6.76517578 47.88380859 -5.82421875 47.19140625 C-4 46 -4 46 -1 45 C-0.67 30.15 -0.34 15.3 0 0 Z " fill="#7C563F" transform="translate(405,373)"/>
<path d="M0 0 C1.17046875 0.03609375 2.3409375 0.0721875 3.546875 0.109375 C4.43890625 0.15578125 5.3309375 0.2021875 6.25 0.25 C6.25 0.58 6.25 0.91 6.25 1.25 C5.11111328 1.30607422 5.11111328 1.30607422 3.94921875 1.36328125 C2.95535156 1.42902344 1.96148437 1.49476563 0.9375 1.5625 C-0.04863281 1.62050781 -1.03476563 1.67851562 -2.05078125 1.73828125 C-5.11343604 2.31890032 -5.85421277 2.85442363 -7.75 5.25 C-8.12852852 8.92245463 -8.2347393 12.49244952 -8.27734375 16.17773438 C-8.33687567 18.20707245 -8.5346657 20.23124092 -8.75 22.25 C-12.00389988 24.41926659 -12.88395957 24.49080049 -16.63671875 24.4453125 C-17.57451172 24.43886719 -18.51230469 24.43242187 -19.47851562 24.42578125 C-20.94321289 24.40064453 -20.94321289 24.40064453 -22.4375 24.375 C-23.42556641 24.36597656 -24.41363281 24.35695312 -25.43164062 24.34765625 C-27.87133765 24.3240843 -30.31054697 24.29118022 -32.75 24.25 C-32.75 23.59 -32.75 22.93 -32.75 22.25 C-25.49 22.25 -18.23 22.25 -10.75 22.25 C-10.90772342 16.50557436 -10.90772342 16.50557436 -11.11035156 10.76269531 C-11.16143287 7.07660236 -11.13627739 4.87107346 -9.15625 1.6875 C-5.94292283 -0.23214999 -3.7168912 -0.14867565 0 0 Z " fill="#482C20" transform="translate(206.75,160.75)"/>
<path d="M0 0 C3.70031394 5.55047091 5.28174805 13.35696172 4 20 C3.01 20.66 2.02 21.32 1 22 C0.63702296 19.08418447 0.28431765 16.16774334 -0.0625 13.25 C-0.16626953 12.425 -0.27003906 11.6 -0.37695312 10.75 C-0.47041016 9.95078125 -0.56386719 9.1515625 -0.66015625 8.328125 C-0.74918213 7.5949707 -0.83820801 6.86181641 -0.92993164 6.10644531 C-1.00408147 3.87729995 -0.64094299 2.12666985 0 0 Z " fill="#ECB032" transform="translate(378,213)"/>
<path d="M0 0 C0 4.55331856 -2.74548941 6.71668569 -5.625 10.0625 C-6.40810547 11.01866211 -6.40810547 11.01866211 -7.20703125 11.99414062 C-10.47985371 15.82859558 -12.89913724 17.8894518 -18 19 C-17.57847656 18.51789063 -17.15695313 18.03578125 -16.72265625 17.5390625 C-15.90087891 16.59160156 -15.90087891 16.59160156 -15.0625 15.625 C-14.51722656 14.99851562 -13.97195312 14.37203125 -13.41015625 13.7265625 C-11.93041376 12.04367666 -11.93041376 12.04367666 -11 10 C-10.34 10 -9.68 10 -9 10 C-8.67 9.01 -8.34 8.02 -8 7 C-6.15234375 5.17578125 -6.15234375 5.17578125 -3.9375 3.3125 C-2.83728516 2.37857422 -2.83728516 2.37857422 -1.71484375 1.42578125 C-1.14894531 0.95527344 -0.58304688 0.48476563 0 0 Z " fill="#684430" transform="translate(111,396)"/>
<path d="M0 0 C2.625 0.14583333 5.25 0.29166667 7.875 0.4375 C9.07358643 0.50408813 9.07358643 0.50408813 10.29638672 0.57202148 C17.03466797 0.94637044 23.77294922 1.3207194 30.51123047 1.69506836 C31.23197754 1.73510986 31.95272461 1.77515137 32.6953125 1.81640625 C34.33113281 1.90728516 34.33113281 1.90728516 36 2 C36 2.33 36 2.66 36 3 C28.74 3.33 21.48 3.66 14 4 C14 3.34 14 2.68 14 2 C12.80375 2.020625 11.6075 2.04125 10.375 2.0625 C6.81995131 2.06882571 3.49444376 1.69888875 0 1 C0 0.67 0 0.34 0 0 Z " fill="#49291B" transform="translate(208,414)"/>
<path d="M0 0 C0.33 0 0.66 0 1 0 C1.33 3.96 1.66 7.92 2 12 C1.67 12 1.34 12 1 12 C0.67 21.24 0.34 30.48 0 40 C-0.33 40 -0.66 40 -1 40 C-1.02495303 35.74992247 -1.0429783 31.49988519 -1.05493164 27.24975586 C-1.05992148 25.807691 -1.06671573 24.36563109 -1.07543945 22.92358398 C-1.1208459 15.21784327 -1.08531842 7.64850379 0 0 Z " fill="#74513C" transform="translate(73,231)"/>
<path d="M0 0 C7.80927848 -0.43207074 14.41386767 -0.13786579 20.5 5.1875 C20.995 5.785625 21.49 6.38375 22 7 C21.29875 6.71125 20.5975 6.4225 19.875 6.125 C18.92625 5.75375 17.9775 5.3825 17 5 C16.0925 4.62875 15.185 4.2575 14.25 3.875 C10.63317095 2.90123833 7.66142574 2.96408426 3.953125 3.22265625 C3.30859375 3.14917969 2.6640625 3.07570312 2 3 C1.34 2.01 0.68 1.02 0 0 Z " fill="#75503B" transform="translate(369,0)"/>
<path d="M0 0 C0 0.66 0 1.32 0 2 C1.98 2 3.96 2 6 2 C6 2.33 6 2.66 6 3 C-5.22 2.67 -16.44 2.34 -28 2 C-28 1.67 -28 1.34 -28 1 C-23.89587259 0.83235721 -19.79169203 0.6660526 -15.6875 0.5 C-13.93663086 0.42845703 -13.93663086 0.42845703 -12.15039062 0.35546875 C-10.47299805 0.28779297 -10.47299805 0.28779297 -8.76171875 0.21875 C-7.73006592 0.17685547 -6.69841309 0.13496094 -5.63549805 0.09179688 C-3.75788811 0.02639796 -1.87874855 0 0 0 Z " fill="#3F2013" transform="translate(249,93)"/>
<path d="M0 0 C1.17781058 3.68065805 1 7.1644081 1 11 C1.33 11.99 1.66 12.98 2 14 C1.67 14.99 1.34 15.98 1 17 C1.66 17 2.32 17 3 17 C3.66 19.97 4.32 22.94 5 26 C-0.08261801 20.91738199 -1.18426363 15.20574593 -1.25 8.125 C-1.19723149 5.03804238 -0.9840871 2.95226131 0 0 Z " fill="#7B553E" transform="translate(385,438)"/>
<path d="M0 0 C0.66 0.33 1.32 0.66 2 1 C0.04808712 3.17277152 -1.91097537 5.33822461 -3.875 7.5 C-4.43058594 8.12003906 -4.98617187 8.74007812 -5.55859375 9.37890625 C-6.09355469 9.96542969 -6.62851563 10.55195313 -7.1796875 11.15625 C-7.67194824 11.70087891 -8.16420898 12.24550781 -8.67138672 12.80664062 C-10 14 -10 14 -12 14 C-12.66 15.32 -13.32 16.64 -14 18 C-14.66 17.67 -15.32 17.34 -16 17 C-14.27227744 15.10283355 -12.54287266 13.20724695 -10.8125 11.3125 C-10.32974609 10.78205078 -9.84699219 10.25160156 -9.34960938 9.70507812 C-6.312614 6.38272748 -3.2063098 3.15941679 0 0 Z " fill="#F4DF62" transform="translate(133,145)"/>
<path d="M0 0 C2.61815739 2.61815739 2.26112488 4.50468338 2.2734375 8.07226562 C2.26570313 8.85279297 2.25796875 9.63332031 2.25 10.4375 C2.25773437 11.21416016 2.26546875 11.99082031 2.2734375 12.79101562 C2.25996806 16.70052168 2.21368645 18.67947032 0 22 C0 14.74 0 7.48 0 0 Z " fill="#74513C" transform="translate(361,64)"/>
<path d="M0 0 C-2.7907207 0.83661862 -5.58248012 1.66942737 -8.375 2.5 C-9.1690625 2.73847656 -9.963125 2.97695313 -10.78125 3.22265625 C-11.92207031 3.56103516 -11.92207031 3.56103516 -13.0859375 3.90625 C-14.1385376 4.22045898 -14.1385376 4.22045898 -15.21240234 4.54101562 C-17 5 -17 5 -19 5 C-19 4.01 -19 3.02 -19 2 C-16.58525383 1.46839543 -14.16891893 0.94945234 -11.75 0.4375 C-11.06808594 0.28603516 -10.38617188 0.13457031 -9.68359375 -0.02148438 C-6.07779197 -0.77415174 -3.51399559 -1.06166083 0 0 Z " fill="#664431" transform="translate(287,410)"/>
<path d="M0 0 C0.33 1.32 0.66 2.64 1 4 C-1.64 4 -4.28 4 -7 4 C-7.66 6.97 -8.32 9.94 -9 13 C-9.33 13 -9.66 13 -10 13 C-9.65646369 4.96125041 -9.65646369 4.96125041 -7.25 1.4375 C-4.59984971 -0.25565158 -3.08799987 -0.3431111 0 0 Z " fill="#F4C35E" transform="translate(57,53)"/>
<path d="M0 0 C0.91007812 0.00902344 1.82015625 0.01804688 2.7578125 0.02734375 C3.45648438 0.03894531 4.15515625 0.05054688 4.875 0.0625 C4.875 0.7225 4.875 1.3825 4.875 2.0625 C1.35440432 3.23603189 -1.431493 3.26396402 -5.125 3.0625 C-5.785 2.4025 -6.445 1.7425 -7.125 1.0625 C-4.60024538 -0.19987731 -2.81299534 -0.03606404 0 0 Z " fill="#52301F" transform="translate(403.125,254.9375)"/>
<path d="M0 0 C0.33 0 0.66 0 1 0 C1.06058594 0.94101562 1.12117188 1.88203125 1.18359375 2.8515625 C1.26738281 4.09679687 1.35117187 5.34203125 1.4375 6.625 C1.55931641 8.46964844 1.55931641 8.46964844 1.68359375 10.3515625 C1.96663944 13.61532388 2.41038953 16.77943859 3 20 C0.90250005 17.64031256 0.03094296 16.45383006 -0.1875 13.25 C-0.125625 12.5075 -0.06375 11.765 0 11 C-0.66 11 -1.32 11 -2 11 C-1.34 7.37 -0.68 3.74 0 0 Z " fill="#4A2B1C" transform="translate(345,22)"/>
<path d="M0 0 C-2.119212 1.36405618 -4.24448118 2.71631775 -6.375 4.0625 C-6.97828125 4.45244141 -7.5815625 4.84238281 -8.203125 5.24414062 C-9.76492557 6.22460432 -11.37992214 7.11916075 -13 8 C-13.66 7.67 -14.32 7.34 -15 7 C-13.88625 6.38125 -13.88625 6.38125 -12.75 5.75 C-10.09245156 4.05883281 -8.17797135 2.25307381 -6 0 C-3.50907189 -1.24546405 -2.58919267 -0.7767578 0 0 Z " fill="#6E4A34" transform="translate(322,393)"/>
<path d="M0 0 C0.99 0 1.98 0 3 0 C3 0.66 3 1.32 3 2 C4.0828125 2.185625 4.0828125 2.185625 5.1875 2.375 C7.95721894 2.9904931 10.3970354 3.88444374 13 5 C12.01 5.66 11.02 6.32 10 7 C5.51311418 5.93731652 3.06205348 3.32451521 0 0 Z " fill="#623F2D" transform="translate(79,504)"/>
<path d="M0 0 C0.33 0 0.66 0 1 0 C1.05429959 1.74965358 1.09292823 3.49979787 1.125 5.25 C1.14820313 6.22453125 1.17140625 7.1990625 1.1953125 8.203125 C0.99862781 11.0196498 0.44568916 12.60949036 -1 15 C-2.18609365 9.3067505 -1.66251802 5.57432514 0 0 Z " fill="#654330" transform="translate(441,441)"/>
<path d="M0 0 C1.45823212 -0.0270043 2.91660675 -0.04639787 4.375 -0.0625 C5.18710937 -0.07410156 5.99921875 -0.08570313 6.8359375 -0.09765625 C9 0 9 0 11 1 C11.625 4.0625 11.625 4.0625 12 7 C11.690625 6.360625 11.38125 5.72125 11.0625 5.0625 C7.90231425 1.90231425 4.31666092 2.18099207 0 2 C0 1.34 0 0.68 0 0 Z " fill="#4E2D1D" transform="translate(430,255)"/>
<path d="M0 0 C0.66 0.33 1.32 0.66 2 1 C-0.55081829 3.97595467 -3.43434437 5.44002566 -7 7 C-7.99 7 -8.98 7 -10 7 C-8.90081184 6.01524786 -7.7954398 5.03739527 -6.6875 4.0625 C-6.07261719 3.51722656 -5.45773437 2.97195312 -4.82421875 2.41015625 C-3 1 -3 1 0 0 Z " fill="#6A4632" transform="translate(456,223)"/>
<path d="M0 0 C0.33 0 0.66 0 1 0 C1.61538462 7.26153846 1.61538462 7.26153846 -1.5 11 C-2.325 11.66 -3.15 12.32 -4 13 C-3.27991594 8.39146203 -1.68704061 4.32762591 0 0 Z " fill="#63422F" transform="translate(493,256)"/>
<path d="M0 0 C0.6875 1.6875 0.6875 1.6875 1 4 C-0.63681917 7.27363833 -2.7567046 10.11576306 -5 13 C-4.48474397 7.71862571 -2.74522883 4.42778844 0 0 Z " fill="#4A2E20" transform="translate(374,310)"/>
<path d="M0 0 C4.31392226 0.4793247 6.16569547 1.7457985 9 5 C5.65626525 4.44271087 2.96687001 3.64826111 0 2 C0 1.34 0 0.68 0 0 Z " fill="#613E2B" transform="translate(107,456)"/>
<path d="M0 0 C0 3.77910478 -0.99703962 4.46106101 -3.5 7.1875 C-4.1496875 7.90292969 -4.799375 8.61835938 -5.46875 9.35546875 C-5.9740625 9.89816406 -6.479375 10.44085938 -7 11 C-7.66 10.67 -8.32 10.34 -9 10 C-6.03 6.7 -3.06 3.4 0 0 Z " fill="#422620" transform="translate(350,350)"/>
<path d="M0 0 C0 3.58912412 -0.66436554 4.10857029 -3 6.6875 C-3.556875 7.31011719 -4.11375 7.93273437 -4.6875 8.57421875 C-5.120625 9.04472656 -5.55375 9.51523437 -6 10 C-6.66 9.67 -7.32 9.34 -8 9 C-5.36 6.03 -2.72 3.06 0 0 Z " fill="#F0CA45" transform="translate(333,333)"/>
<path d="M0 0 C0 0.99 0 1.98 0 3 C-3.15830185 6.06806466 -5.61999924 7.49942848 -10 8 C-6.88983545 4.71211176 -3.98381075 2.16264012 0 0 Z " fill="#EDDA62" transform="translate(155,128)"/>
<path d="M0 0 C0.75 1.75 0.75 1.75 1 4 C-0.8125 6.25 -0.8125 6.25 -3 8 C-3.66 8 -4.32 8 -5 8 C-3.8141763 4.62496331 -2.72426311 2.35277269 0 0 Z " fill="#6D4932" transform="translate(106,154)"/>
<path d="M0 0 C4.61513112 1.31860889 8.09897612 3.21355437 12 6 C11.01 6.495 11.01 6.495 10 7 C7.375 6.0625 7.375 6.0625 5 5 C5 4.34 5 3.68 5 3 C2.525 2.01 2.525 2.01 0 1 C0 0.67 0 0.34 0 0 Z " fill="#734E36" transform="translate(309,111)"/>
<path d="M0 0 C0 0.66 0 1.32 0 2 C1.98 2 3.96 2 6 2 C6 2.33 6 2.66 6 3 C4.20866022 3.05391993 2.41686101 3.09275571 0.625 3.125 C-0.37273437 3.14820312 -1.37046875 3.17140625 -2.3984375 3.1953125 C-5 3 -5 3 -7 1 C-4.50935112 0.31292445 -2.62113708 0 0 0 Z " fill="#4B2B1C" transform="translate(249,93)"/>
<path d="M0 0 C4.50884026 2.31883213 6.93906776 5.06451569 10 9 C6.04322598 7.32598022 3.15535787 4.86850715 0 2 C0 1.34 0 0.68 0 0 Z " fill="#493020" transform="translate(129,362)"/>
<path d="M0 0 C1.2872642 2.5745284 1.34791629 4.14708645 1 7 C-1 8.8125 -1 8.8125 -3 10 C-2.69201674 8.51988629 -2.378482 7.04092675 -2.0625 5.5625 C-1.88847656 4.73878906 -1.71445312 3.91507812 -1.53515625 3.06640625 C-1 1 -1 1 0 0 Z " fill="#F4C664" transform="translate(40,349)"/>
<path d="M0 0 C0.66 0.99 1.32 1.98 2 3 C-1.75 6 -1.75 6 -4 6 C-2.84826645 3.53199953 -1.95216435 1.95216435 0 0 Z M2 1 C4 2 4 2 4 2 Z " fill="#6F4A34" transform="translate(79,461)"/>
<path d="M0 0 C0.66 0.33 1.32 0.66 2 1 C1.67 3.97 1.34 6.94 1 10 C0.34 9.67 -0.32 9.34 -1 9 C-0.67 6.03 -0.34 3.06 0 0 Z " fill="#684531" transform="translate(393,282)"/>
<path d="M0 0 C1.98 0 3.96 0 6 0 C6 0.99 6 1.98 6 3 C3.03 3 0.06 3 -3 3 C-2.01 2.67 -1.02 2.34 0 2 C0 1.34 0 0.68 0 0 Z " fill="#5F3D2B" transform="translate(408,255)"/>
<path d="M0 0 C1.65 0 3.3 0 5 0 C5 0.99 5 1.98 5 3 C2.03 3 -0.94 3 -4 3 C-2.68 2.67 -1.36 2.34 0 2 C0 1.34 0 0.68 0 0 Z " fill="#4F2E1F" transform="translate(216,93)"/>
<path d="M0 0 C0.99 0.66 1.98 1.32 3 2 C-1.455 3.485 -1.455 3.485 -6 5 C-5 2 -5 2 -2.625 0.6875 C-1.75875 0.460625 -0.8925 0.23375 0 0 Z " fill="#674430" transform="translate(297,403)"/>
<path d="M0 0 C0.99 0.33 1.98 0.66 3 1 C4.1875 4.0625 4.1875 4.0625 5 7 C4.01 7.495 4.01 7.495 3 8 C0 2.25 0 2.25 0 0 Z " fill="#6C4931" transform="translate(86,322)"/>
<path d="M0 0 C2.97 0 5.94 0 9 0 C9 0.66 9 1.32 9 2 C6.1875 2.6875 6.1875 2.6875 3 3 C2.01 2.01 1.02 1.02 0 0 Z " fill="#614424" transform="translate(212,131)"/>
<path d="M0 0 C-0.625 1.9375 -0.625 1.9375 -2 4 C-5.125 4.75 -5.125 4.75 -8 5 C-7.01 4.67 -6.02 4.34 -5 4 C-4.67 3.01 -4.34 2.02 -4 1 C-2 0 -2 0 0 0 Z " fill="#623F2D" transform="translate(391,51)"/>
<path d="M0 0 C0.99 0.33 1.98 0.66 3 1 C2.01 1.33 1.02 1.66 0 2 C0 1.34 0 0.68 0 0 Z " fill="#855735" transform="translate(119,373)"/>
<path d="M0 0 C1.485 0.99 1.485 0.99 3 2 C2.01 2 1.02 2 0 2 C0 1.34 0 0.68 0 0 Z " fill="#885B3A" transform="translate(104,397)"/>
<path d="M0 0 C0 3 0 3 0 3 Z " fill="#875A37" transform="translate(110,393)"/>
<path d="M0 0 C0.66 0.33 1.32 0.66 2 1 C1.01 1 0.02 1 -1 1 C-0.67 0.67 -0.34 0.34 0 0 Z " fill="#865736" transform="translate(114,389)"/>
<path d="M0 0 C0.99 0.495 0.99 0.495 2 1 C1.67 1.66 1.34 2.32 1 3 C0.67 2.01 0.34 1.02 0 0 Z " fill="#71492F" transform="translate(350,50)"/>
<path d="" fill="#754A2F" transform="translate(0,0)"/>
<path d="M0 0 C0.33 0.66 0.66 1.32 1 2 C0.34 1.67 -0.32 1.34 -1 1 C-0.67 0.67 -0.34 0.34 0 0 Z " fill="#754A2F" transform="translate(76,209)"/>
<path d="M0 0 C0.99 0.495 0.99 0.495 2 1 C1.01 1.495 1.01 1.495 0 2 C0 1.34 0 0.68 0 0 Z " fill="#794F33" transform="translate(346,129)"/>
<path d="M0 0 C3 1 3 1 3 1 Z " fill="#6C452B" transform="translate(351,5)"/>
<path d="" fill="#6B4227" transform="translate(0,0)"/>
<path d="M0 0 C2 1 2 1 2 1 Z " fill="#8A5C3A" transform="translate(91,412)"/>
<path d="" fill="#865836" transform="translate(0,0)"/>
<path d="" fill="#845632" transform="translate(0,0)"/>
<path d="" fill="#784E32" transform="translate(0,0)"/>
<path d="" fill="#7B4F32" transform="translate(0,0)"/>
<path d="" fill="#774B30" transform="translate(0,0)"/>
<path d="" fill="#744B30" transform="translate(0,0)"/>
<path d="" fill="#774B30" transform="translate(0,0)"/>
<path d="M0 0 C2 1 2 1 2 1 Z " fill="#795031" transform="translate(85,180)"/>
<path d="" fill="#805331" transform="translate(0,0)"/>
<path d="" fill="#805232" transform="translate(0,0)"/>
<path d="M0 0 C2 1 2 1 2 1 Z " fill="#D89D3E" transform="translate(443,137)"/>
<path d="M0 0 C2 1 2 1 2 1 Z " fill="#754A2F" transform="translate(350,125)"/>
<path d="" fill="#DFAC4B" transform="translate(0,0)"/>
<path d="" fill="#694129" transform="translate(0,0)"/>
<path d="" fill="#744A2F" transform="translate(0,0)"/>
<path d="" fill="#73482C" transform="translate(0,0)"/>
<path d="" fill="#70452C" transform="translate(0,0)"/>
<path d="" fill="#734830" transform="translate(0,0)"/>
<path d="" fill="#754C31" transform="translate(0,0)"/>
<path d="" fill="#774C30" transform="translate(0,0)"/>
<path d="" fill="#774C33" transform="translate(0,0)"/>
<path d="" fill="#74482F" transform="translate(0,0)"/>
<path d="" fill="#72482D" transform="translate(0,0)"/>
<path d="" fill="#8A5B37" transform="translate(0,0)"/>
<path d="" fill="#875B39" transform="translate(0,0)"/>
<path d="" fill="#7D5333" transform="translate(0,0)"/>
<path d="" fill="#855634" transform="translate(0,0)"/>
<path d="" fill="#8F5E3A" transform="translate(0,0)"/>
<path d="" fill="#EFB646" transform="translate(0,0)"/>
<path d="" fill="#EDB64B" transform="translate(0,0)"/>
<path d="" fill="#8F5F3A" transform="translate(0,0)"/>
<path d="" fill="#E2B357" transform="translate(0,0)"/>
<path d="" fill="#915F3B" transform="translate(0,0)"/>
<path d="" fill="#855733" transform="translate(0,0)"/>
<path d="" fill="#7E5234" transform="translate(0,0)"/>
<path d="" fill="#744B31" transform="translate(0,0)"/>
<path d="" fill="#744A32" transform="translate(0,0)"/>
<path d="" fill="#774B32" transform="translate(0,0)"/>
<path d="" fill="#825136" transform="translate(0,0)"/>
<path d="" fill="#714729" transform="translate(0,0)"/>
<path d="" fill="#7D5137" transform="translate(0,0)"/>
<path d="" fill="#764D2D" transform="translate(0,0)"/>
<path d="" fill="#D4953A" transform="translate(0,0)"/>
<path d="" fill="#7C5132" transform="translate(0,0)"/>
<path d="" fill="#75472B" transform="translate(0,0)"/>
<path d="" fill="#7D5231" transform="translate(0,0)"/>
<path d="" fill="#75492A" transform="translate(0,0)"/>
<path d="" fill="#77492A" transform="translate(0,0)"/>
<path d="" fill="#865635" transform="translate(0,0)"/>
<path d="" fill="#754D30" transform="translate(0,0)"/>
<path d="" fill="#805433" transform="translate(0,0)"/>
<path d="" fill="#7D5133" transform="translate(0,0)"/>
<path d="" fill="#7A4C30" transform="translate(0,0)"/>
<path d="" fill="#E4B04B" transform="translate(0,0)"/>
<path d="" fill="#DFAE4C" transform="translate(0,0)"/>
<path d="" fill="#E9B44E" transform="translate(0,0)"/>
<path d="" fill="#73472F" transform="translate(0,0)"/>
<path d="" fill="#784E34" transform="translate(0,0)"/>
<path d="" fill="#EBB749" transform="translate(0,0)"/>
<path d="" fill="#74492F" transform="translate(0,0)"/>
<path d="" fill="#724A30" transform="translate(0,0)"/>
<path d="" fill="#6A4028" transform="translate(0,0)"/>
<path d="" fill="#82573D" transform="translate(0,0)"/>
</svg>
